# Unidades relativas; Z arriba. No usar como levantamiento medido.
mtllib modelo.mtl
o locales_frente_0
usemtl c0
v 0 0 0
v 29 0 0
v 29 7 0
v 0 7 0
v 0 0 4
v 29 0 4
v 29 7 4
v 0 7 4
f 1 4 3 2
f 1 2 6 5
f 2 3 7 6
f 3 4 8 7
f 4 1 5 8
f 5 6 7 8
o locales_frente_cornisa_1
usemtl c1
v -0.15 -0.15 4
v 29.150000000000002 -0.15 4
v 29.150000000000002 7.1499999999999995 4
v -0.15 7.1499999999999995 4
v -0.15 -0.15 4.25
v 29.150000000000002 -0.15 4.25
v 29.150000000000002 7.1499999999999995 4.25
v -0.15 7.1499999999999995 4.25
f 9 12 11 10
f 9 10 14 13
f 10 11 15 14
f 11 12 16 15
f 12 9 13 16
f 13 14 15 16
o ala_izquierda_2
usemtl c2
v 0 7 0
v 7 7 0
v 7 23 0
v 0 23 0
v 0 7 4
v 7 7 4
v 7 23 4
v 0 23 4
f 17 20 19 18
f 17 18 22 21
f 18 19 23 22
f 19 20 24 23
f 20 17 21 24
f 21 22 23 24
o ala_izquierda_cornisa_3
usemtl c3
v -0.15 6.85 4
v 7.1499999999999995 6.85 4
v 7.1499999999999995 23.15 4
v -0.15 23.15 4
v -0.15 6.85 4.25
v 7.1499999999999995 6.85 4.25
v 7.1499999999999995 23.15 4.25
v -0.15 23.15 4.25
f 25 28 27 26
f 25 26 30 29
f 26 27 31 30
f 27 28 32 31
f 28 25 29 32
f 29 30 31 32
o ala_fondo_4
usemtl c4
v 7 17 0
v 29 17 0
v 29 23 0
v 7 23 0
v 7 17 4
v 29 17 4
v 29 23 4
v 7 23 4
f 33 36 35 34
f 33 34 38 37
f 34 35 39 38
f 35 36 40 39
f 36 33 37 40
f 37 38 39 40
o ala_fondo_cornisa_5
usemtl c5
v 6.85 16.85 4
v 29.15 16.85 4
v 29.15 23.150000000000002 4
v 6.85 23.150000000000002 4
v 6.85 16.85 4.25
v 29.15 16.85 4.25
v 29.15 23.150000000000002 4.25
v 6.85 23.150000000000002 4.25
f 41 44 43 42
f 41 42 46 45
f 42 43 47 46
f 43 44 48 47
f 44 41 45 48
f 45 46 47 48
o oficina_A_6
usemtl c6
v 8 16 4
v 16 16 4
v 16 23 4
v 8 23 4
v 8 16 8
v 16 16 8
v 16 23 8
v 8 23 8
f 49 52 51 50
f 49 50 54 53
f 50 51 55 54
f 51 52 56 55
f 52 49 53 56
f 53 54 55 56
o oficina_B_7
usemtl c7
v 20 12 4
v 29 12 4
v 29 22 4
v 20 22 4
v 20 12 7
v 29 12 7
v 29 22 7
v 20 22 7
f 57 60 59 58
f 57 58 62 61
f 58 59 63 62
f 59 60 64 63
f 60 57 61 64
f 61 62 63 64
o vano_referencial_8
usemtl c8
v 1.0 -0.04 1
v 2.4 -0.04 1
v 2.4 0.030000000000000006 1
v 1.0 0.030000000000000006 1
v 1.0 -0.04 3.6
v 2.4 -0.04 3.6
v 2.4 0.030000000000000006 3.6
v 1.0 0.030000000000000006 3.6
f 65 68 67 66
f 65 66 70 69
f 66 67 71 70
f 67 68 72 71
f 68 65 69 72
f 69 70 71 72
o vano_referencial_9
usemtl c9
v 3.7 -0.04 1
v 5.1 -0.04 1
v 5.1 0.030000000000000006 1
v 3.7 0.030000000000000006 1
v 3.7 -0.04 3.6
v 5.1 -0.04 3.6
v 5.1 0.030000000000000006 3.6
v 3.7 0.030000000000000006 3.6
f 73 76 75 74
f 73 74 78 77
f 74 75 79 78
f 75 76 80 79
f 76 73 77 80
f 77 78 79 80
o vano_referencial_10
usemtl c10
v 6.4 -0.04 1
v 7.800000000000001 -0.04 1
v 7.800000000000001 0.030000000000000006 1
v 6.4 0.030000000000000006 1
v 6.4 -0.04 3.6
v 7.800000000000001 -0.04 3.6
v 7.800000000000001 0.030000000000000006 3.6
v 6.4 0.030000000000000006 3.6
f 81 84 83 82
f 81 82 86 85
f 82 83 87 86
f 83 84 88 87
f 84 81 85 88
f 85 86 87 88
o vano_referencial_11
usemtl c11
v 9.100000000000001 -0.04 1
v 10.500000000000002 -0.04 1
v 10.500000000000002 0.030000000000000006 1
v 9.100000000000001 0.030000000000000006 1
v 9.100000000000001 -0.04 3.6
v 10.500000000000002 -0.04 3.6
v 10.500000000000002 0.030000000000000006 3.6
v 9.100000000000001 0.030000000000000006 3.6
f 89 92 91 90
f 89 90 94 93
f 90 91 95 94
f 91 92 96 95
f 92 89 93 96
f 93 94 95 96
o vano_referencial_12
usemtl c12
v 11.8 -0.04 1
v 13.200000000000001 -0.04 1
v 13.200000000000001 0.030000000000000006 1
v 11.8 0.030000000000000006 1
v 11.8 -0.04 3.6
v 13.200000000000001 -0.04 3.6
v 13.200000000000001 0.030000000000000006 3.6
v 11.8 0.030000000000000006 3.6
f 97 100 99 98
f 97 98 102 101
f 98 99 103 102
f 99 100 104 103
f 100 97 101 104
f 101 102 103 104
o vano_referencial_13
usemtl c13
v 14.5 -0.04 1
v 15.9 -0.04 1
v 15.9 0.030000000000000006 1
v 14.5 0.030000000000000006 1
v 14.5 -0.04 3.6
v 15.9 -0.04 3.6
v 15.9 0.030000000000000006 3.6
v 14.5 0.030000000000000006 3.6
f 105 108 107 106
f 105 106 110 109
f 106 107 111 110
f 107 108 112 111
f 108 105 109 112
f 109 110 111 112
o vano_referencial_14
usemtl c14
v 17.200000000000003 -0.04 1
v 18.6 -0.04 1
v 18.6 0.030000000000000006 1
v 17.200000000000003 0.030000000000000006 1
v 17.200000000000003 -0.04 3.6
v 18.6 -0.04 3.6
v 18.6 0.030000000000000006 3.6
v 17.200000000000003 0.030000000000000006 3.6
f 113 116 115 114
f 113 114 118 117
f 114 115 119 118
f 115 116 120 119
f 116 113 117 120
f 117 118 119 120
o vano_referencial_15
usemtl c15
v 19.900000000000002 -0.04 1
v 21.3 -0.04 1
v 21.3 0.030000000000000006 1
v 19.900000000000002 0.030000000000000006 1
v 19.900000000000002 -0.04 3.6
v 21.3 -0.04 3.6
v 21.3 0.030000000000000006 3.6
v 19.900000000000002 0.030000000000000006 3.6
f 121 124 123 122
f 121 122 126 125
f 122 123 127 126
f 123 124 128 127
f 124 121 125 128
f 125 126 127 128
o vano_referencial_16
usemtl c16
v 22.6 -0.04 1
v 24.0 -0.04 1
v 24.0 0.030000000000000006 1
v 22.6 0.030000000000000006 1
v 22.6 -0.04 3.6
v 24.0 -0.04 3.6
v 24.0 0.030000000000000006 3.6
v 22.6 0.030000000000000006 3.6
f 129 132 131 130
f 129 130 134 133
f 130 131 135 134
f 131 132 136 135
f 132 129 133 136
f 133 134 135 136
o vano_referencial_17
usemtl c17
v 25.3 -0.04 1
v 26.7 -0.04 1
v 26.7 0.030000000000000006 1
v 25.3 0.030000000000000006 1
v 25.3 -0.04 3.6
v 26.7 -0.04 3.6
v 26.7 0.030000000000000006 3.6
v 25.3 0.030000000000000006 3.6
f 137 140 139 138
f 137 138 142 141
f 138 139 143 142
f 139 140 144 143
f 140 137 141 144
f 141 142 143 144