<svg xmlns="http://www.w3.org/2000/svg" viewBox="0 0 700 700"><g fill="none" stroke="#3a4850" stroke-width="0.65"><polygon points="75.00,505.38 625.00,505.38 625.00,230.38 75.00,230.38"/><polygon points="66.75,230.38 633.25,230.38 633.25,216.63 66.75,216.63"/><polygon points="42.00,230.38 658.00,230.38 658.00,194.62 42.00,194.62"/><polygon points="72.80,450.38 76.65,450.38 76.65,312.88 72.80,312.88"/><polygon points="72.80,450.38 76.65,450.38 76.65,312.88 72.80,312.88"/><polygon points="72.80,450.38 76.65,450.38 76.65,312.88 72.80,312.88"/><polygon points="72.80,450.38 76.65,450.38 76.65,312.88 72.80,312.88"/><polygon points="72.80,450.38 76.65,450.38 76.65,312.88 72.80,312.88"/><polygon points="72.80,450.38 76.65,450.38 76.65,312.88 72.80,312.88"/><polygon points="72.80,450.38 76.65,450.38 76.65,312.88 72.80,312.88"/><polygon points="72.80,450.38 76.65,450.38 76.65,312.88 72.80,312.88"/></g></svg>