# Unidades relativas; Z arriba. No usar como levantamiento medido.
mtllib modelo.mtl
o cuerpo_0
usemtl c0
v 0 0 0
v 23 0 0
v 23 10 0
v 0 10 0
v 0 0 5
v 23 0 5
v 23 10 5
v 0 10 5
f 1 4 3 2
f 1 2 6 5
f 2 3 7 6
f 3 4 8 7
f 4 1 5 8
f 5 6 7 8
o cuerpo_cornisa_1
usemtl c1
v -0.15 -0.15 5
v 23.150000000000002 -0.15 5
v 23.150000000000002 10.15 5
v -0.15 10.15 5
v -0.15 -0.15 5.25
v 23.150000000000002 -0.15 5.25
v 23.150000000000002 10.15 5.25
v -0.15 10.15 5.25
f 9 12 11 10
f 9 10 14 13
f 10 11 15 14
f 11 12 16 15
f 12 9 13 16
f 13 14 15 16
o cubierta_2
usemtl c2
v -0.6 -0.6 5
v 23.599999999999998 -0.6 5
v 23.599999999999998 10.6 5
v -0.6 10.6 5
v -0.6 -0.6 5.65
v 23.599999999999998 -0.6 5.65
v 23.599999999999998 10.6 5.65
v -0.6 10.6 5.65
f 17 20 19 18
f 17 18 22 21
f 18 19 23 22
f 19 20 24 23
f 20 17 21 24
f 21 22 23 24
o vano_referencial_3
usemtl c3
v 1.0 -0.04 1
v 2.4 -0.04 1
v 2.4 0.030000000000000006 1
v 1.0 0.030000000000000006 1
v 1.0 -0.04 3.5
v 2.4 -0.04 3.5
v 2.4 0.030000000000000006 3.5
v 1.0 0.030000000000000006 3.5
f 25 28 27 26
f 25 26 30 29
f 26 27 31 30
f 27 28 32 31
f 28 25 29 32
f 29 30 31 32
o vano_referencial_4
usemtl c4
v 3.7 -0.04 1
v 5.1 -0.04 1
v 5.1 0.030000000000000006 1
v 3.7 0.030000000000000006 1
v 3.7 -0.04 3.5
v 5.1 -0.04 3.5
v 5.1 0.030000000000000006 3.5
v 3.7 0.030000000000000006 3.5
f 33 36 35 34
f 33 34 38 37
f 34 35 39 38
f 35 36 40 39
f 36 33 37 40
f 37 38 39 40
o vano_referencial_5
usemtl c5
v 6.4 -0.04 1
v 7.800000000000001 -0.04 1
v 7.800000000000001 0.030000000000000006 1
v 6.4 0.030000000000000006 1
v 6.4 -0.04 3.5
v 7.800000000000001 -0.04 3.5
v 7.800000000000001 0.030000000000000006 3.5
v 6.4 0.030000000000000006 3.5
f 41 44 43 42
f 41 42 46 45
f 42 43 47 46
f 43 44 48 47
f 44 41 45 48
f 45 46 47 48
o vano_referencial_6
usemtl c6
v 9.100000000000001 -0.04 1
v 10.500000000000002 -0.04 1
v 10.500000000000002 0.030000000000000006 1
v 9.100000000000001 0.030000000000000006 1
v 9.100000000000001 -0.04 3.5
v 10.500000000000002 -0.04 3.5
v 10.500000000000002 0.030000000000000006 3.5
v 9.100000000000001 0.030000000000000006 3.5
f 49 52 51 50
f 49 50 54 53
f 50 51 55 54
f 51 52 56 55
f 52 49 53 56
f 53 54 55 56
o vano_referencial_7
usemtl c7
v 11.8 -0.04 1
v 13.200000000000001 -0.04 1
v 13.200000000000001 0.030000000000000006 1
v 11.8 0.030000000000000006 1
v 11.8 -0.04 3.5
v 13.200000000000001 -0.04 3.5
v 13.200000000000001 0.030000000000000006 3.5
v 11.8 0.030000000000000006 3.5
f 57 60 59 58
f 57 58 62 61
f 58 59 63 62
f 59 60 64 63
f 60 57 61 64
f 61 62 63 64
o vano_referencial_8
usemtl c8
v 14.5 -0.04 1
v 15.9 -0.04 1
v 15.9 0.030000000000000006 1
v 14.5 0.030000000000000006 1
v 14.5 -0.04 3.5
v 15.9 -0.04 3.5
v 15.9 0.030000000000000006 3.5
v 14.5 0.030000000000000006 3.5
f 65 68 67 66
f 65 66 70 69
f 66 67 71 70
f 67 68 72 71
f 68 65 69 72
f 69 70 71 72
o vano_referencial_9
usemtl c9
v 17.200000000000003 -0.04 1
v 18.6 -0.04 1
v 18.6 0.030000000000000006 1
v 17.200000000000003 0.030000000000000006 1
v 17.200000000000003 -0.04 3.5
v 18.6 -0.04 3.5
v 18.6 0.030000000000000006 3.5
v 17.200000000000003 0.030000000000000006 3.5
f 73 76 75 74
f 73 74 78 77
f 74 75 79 78
f 75 76 80 79
f 76 73 77 80
f 77 78 79 80
o vano_referencial_10
usemtl c10
v 19.900000000000002 -0.04 1
v 21.3 -0.04 1
v 21.3 0.030000000000000006 1
v 19.900000000000002 0.030000000000000006 1
v 19.900000000000002 -0.04 3.5
v 21.3 -0.04 3.5
v 21.3 0.030000000000000006 3.5
v 19.900000000000002 0.030000000000000006 3.5
f 81 84 83 82
f 81 82 86 85
f 82 83 87 86
f 83 84 88 87
f 84 81 85 88
f 85 86 87 88