# Unidades relativas; Z arriba. No usar como levantamiento medido.
mtllib modelo.mtl
o barra_posterior_0
usemtl c0
v 0 17 0
v 31 17 0
v 31 23 0
v 0 23 0
v 0 17 8
v 31 17 8
v 31 23 8
v 0 23 8
f 1 4 3 2
f 1 2 6 5
f 2 3 7 6
f 3 4 8 7
f 4 1 5 8
f 5 6 7 8
o barra_posterior_cornisa_1
usemtl c1
v -0.15 16.85 8
v 31.150000000000002 16.85 8
v 31.150000000000002 23.150000000000002 8
v -0.15 23.150000000000002 8
v -0.15 16.85 8.25
v 31.150000000000002 16.85 8.25
v 31.150000000000002 23.150000000000002 8.25
v -0.15 23.150000000000002 8.25
f 9 12 11 10
f 9 10 14 13
f 10 11 15 14
f 11 12 16 15
f 12 9 13 16
f 13 14 15 16
o ala_lateral_2
usemtl c2
v 24 0 0
v 31 0 0
v 31 17 0
v 24 17 0
v 24 0 8
v 31 0 8
v 31 17 8
v 24 17 8
f 17 20 19 18
f 17 18 22 21
f 18 19 23 22
f 19 20 24 23
f 20 17 21 24
f 21 22 23 24
o ala_lateral_cornisa_3
usemtl c3
v 23.85 -0.15 8
v 31.150000000000002 -0.15 8
v 31.150000000000002 17.150000000000002 8
v 23.85 17.150000000000002 8
v 23.85 -0.15 8.25
v 31.150000000000002 -0.15 8.25
v 31.150000000000002 17.150000000000002 8.25
v 23.85 17.150000000000002 8.25
f 25 28 27 26
f 25 26 30 29
f 26 27 31 30
f 27 28 32 31
f 28 25 29 32
f 29 30 31 32
o ala_corta_4
usemtl c4
v 10 0 0
v 16 0 0
v 16 10 0
v 10 10 0
v 10 0 6
v 16 0 6
v 16 10 6
v 10 10 6
f 33 36 35 34
f 33 34 38 37
f 34 35 39 38
f 35 36 40 39
f 36 33 37 40
f 37 38 39 40
o ala_corta_cornisa_5
usemtl c5
v 9.85 -0.15 6
v 16.15 -0.15 6
v 16.15 10.15 6
v 9.85 10.15 6
v 9.85 -0.15 6.25
v 16.15 -0.15 6.25
v 16.15 10.15 6.25
v 9.85 10.15 6.25
f 41 44 43 42
f 41 42 46 45
f 42 43 47 46
f 43 44 48 47
f 44 41 45 48
f 45 46 47 48
o vano_referencial_6
usemtl c6
v 25.0 -0.04 1
v 26.4 -0.04 1
v 26.4 0.030000000000000006 1
v 25.0 0.030000000000000006 1
v 25.0 -0.04 4
v 26.4 -0.04 4
v 26.4 0.030000000000000006 4
v 25.0 0.030000000000000006 4
f 49 52 51 50
f 49 50 54 53
f 50 51 55 54
f 51 52 56 55
f 52 49 53 56
f 53 54 55 56
o vano_referencial_7
usemtl c7
v 27.7 -0.04 1
v 29.099999999999998 -0.04 1
v 29.099999999999998 0.030000000000000006 1
v 27.7 0.030000000000000006 1
v 27.7 -0.04 4
v 29.099999999999998 -0.04 4
v 29.099999999999998 0.030000000000000006 4
v 27.7 0.030000000000000006 4
f 57 60 59 58
f 57 58 62 61
f 58 59 63 62
f 59 60 64 63
f 60 57 61 64
f 61 62 63 64