<svg xmlns="http://www.w3.org/2000/svg" viewBox="0 0 700 700"><g fill="none" stroke="#3a4850" stroke-width="0.65"><polygon points="325.23,440.83 506.89,440.83 506.89,292.20 325.23,292.20"/><polygon points="322.75,292.20 509.37,292.20 509.37,288.07 322.75,288.07"/><polygon points="44.48,440.83 325.23,440.83 325.23,292.20 44.48,292.20"/><polygon points="42.00,292.20 327.71,292.20 327.71,288.07 42.00,288.07"/><polygon points="506.89,440.83 655.52,440.83 655.52,358.26 506.89,358.26"/><polygon points="504.41,358.26 658.00,358.26 658.00,354.13 504.41,354.13"/><polygon points="259.17,440.83 261.59,440.83 261.59,259.17 259.17,259.17"/><polygon points="261.59,440.83 268.63,440.83 268.63,259.17 261.59,259.17"/><polygon points="268.63,440.83 279.59,440.83 279.59,259.17 268.63,259.17"/><polygon points="279.59,440.83 293.40,440.83 293.40,259.17 279.59,259.17"/><polygon points="293.40,440.83 308.71,440.83 308.71,259.17 293.40,259.17"/><polygon points="308.71,440.83 324.02,440.83 324.02,259.17 308.71,259.17"/><polygon points="324.02,440.83 337.83,440.83 337.83,259.17 324.02,259.17"/><polygon points="337.83,440.83 348.80,440.83 348.80,259.17 337.83,259.17"/><polygon points="348.80,440.83 355.83,440.83 355.83,259.17 348.80,259.17"/><polygon points="355.83,440.83 358.26,440.83 358.26,259.17 355.83,259.17"/></g></svg>