# Unidades relativas; Z arriba. No usar como levantamiento medido.
mtllib modelo.mtl
o cuerpo_A_0
usemtl c0
v 0 0 0
v 11 0 0
v 11 12 0
v 0 12 0
v 0 0 9
v 11 0 9
v 11 12 9
v 0 12 9
f 1 4 3 2
f 1 2 6 5
f 2 3 7 6
f 3 4 8 7
f 4 1 5 8
f 5 6 7 8
o cuerpo_A_cornisa_1
usemtl c1
v -0.15 -0.15 9
v 11.15 -0.15 9
v 11.15 12.15 9
v -0.15 12.15 9
v -0.15 -0.15 9.25
v 11.15 -0.15 9.25
v 11.15 12.15 9.25
v -0.15 12.15 9.25
f 9 12 11 10
f 9 10 14 13
f 10 11 15 14
f 11 12 16 15
f 12 9 13 16
f 13 14 15 16
o cuerpo_B_2
usemtl c2
v 11 2 0
v 28 2 0
v 28 14 0
v 11 14 0
v 11 2 9
v 28 2 9
v 28 14 9
v 11 14 9
f 17 20 19 18
f 17 18 22 21
f 18 19 23 22
f 19 20 24 23
f 20 17 21 24
f 21 22 23 24
o cuerpo_B_cornisa_3
usemtl c3
v 10.85 1.85 9
v 28.15 1.85 9
v 28.15 14.15 9
v 10.85 14.15 9
v 10.85 1.85 9.25
v 28.15 1.85 9.25
v 28.15 14.15 9.25
v 10.85 14.15 9.25
f 25 28 27 26
f 25 26 30 29
f 26 27 31 30
f 27 28 32 31
f 28 25 29 32
f 29 30 31 32
o conexion_4
usemtl c4
v -9 8 0
v 0 8 0
v 0 12 0
v -9 12 0
v -9 8 5
v 0 8 5
v 0 12 5
v -9 12 5
f 33 36 35 34
f 33 34 38 37
f 34 35 39 38
f 35 36 40 39
f 36 33 37 40
f 37 38 39 40
o conexion_cornisa_5
usemtl c5
v -9.15 7.85 5
v 0.15000000000000036 7.85 5
v 0.15000000000000036 12.149999999999999 5
v -9.15 12.149999999999999 5
v -9.15 7.85 5.25
v 0.15000000000000036 7.85 5.25
v 0.15000000000000036 12.149999999999999 5.25
v -9.15 12.149999999999999 5.25
f 41 44 43 42
f 41 42 46 45
f 42 43 47 46
f 43 44 48 47
f 44 41 45 48
f 45 46 47 48
o remate_curvo_6
usemtl c6
v 15.0 13.0 0
v 14.853169548885461 13.927050983124841 0
v 14.427050983124843 14.76335575687742 0
v 13.76335575687742 15.427050983124843 0
v 12.927050983124843 15.853169548885461 0
v 12.0 16.0 0
v 11.072949016875159 15.853169548885461 0
v 10.23664424312258 15.427050983124843 0
v 9.572949016875159 14.76335575687742 0
v 9.146830451114539 13.927050983124843 0
v 9.0 13.0 0
v 9.146830451114539 12.072949016875159 0
v 9.572949016875157 11.23664424312258 0
v 10.23664424312258 10.572949016875159 0
v 11.072949016875157 10.146830451114539 0
v 12.0 10.0 0
v 12.927050983124841 10.146830451114539 0
v 13.763355756877418 10.572949016875157 0
v 14.427050983124841 11.23664424312258 0
v 14.853169548885461 12.072949016875157 0
v 15.0 13.0 11
v 14.853169548885461 13.927050983124841 11
v 14.427050983124843 14.76335575687742 11
v 13.76335575687742 15.427050983124843 11
v 12.927050983124843 15.853169548885461 11
v 12.0 16.0 11
v 11.072949016875159 15.853169548885461 11
v 10.23664424312258 15.427050983124843 11
v 9.572949016875159 14.76335575687742 11
v 9.146830451114539 13.927050983124843 11
v 9.0 13.0 11
v 9.146830451114539 12.072949016875159 11
v 9.572949016875157 11.23664424312258 11
v 10.23664424312258 10.572949016875159 11
v 11.072949016875157 10.146830451114539 11
v 12.0 10.0 11
v 12.927050983124841 10.146830451114539 11
v 13.763355756877418 10.572949016875157 11
v 14.427050983124841 11.23664424312258 11
v 14.853169548885461 12.072949016875157 11
f 68 67 66 65 64 63 62 61 60 59 58 57 56 55 54 53 52 51 50 49
f 69 70 71 72 73 74 75 76 77 78 79 80 81 82 83 84 85 86 87 88
f 49 50 70 69
f 50 51 71 70
f 51 52 72 71
f 52 53 73 72
f 53 54 74 73
f 54 55 75 74
f 55 56 76 75
f 56 57 77 76
f 57 58 78 77
f 58 59 79 78
f 59 60 80 79
f 60 61 81 80
f 61 62 82 81
f 62 63 83 82
f 63 64 84 83
f 64 65 85 84
f 65 66 86 85
f 66 67 87 86
f 67 68 88 87
f 68 49 69 88