# Unidades relativas; Z arriba. No usar como levantamiento medido.
mtllib modelo.mtl
o losa_0
usemtl c0
v 0 0 0
v 28 0 0
v 28 22 0
v 0 22 0
v 0 0 0.35
v 28 0 0.35
v 28 22 0.35
v 0 22 0.35
f 1 4 3 2
f 1 2 6 5
f 2 3 7 6
f 3 4 8 7
f 4 1 5 8
f 5 6 7 8
o losa_1
usemtl c1
v 0 0 3
v 28 0 3
v 28 22 3
v 0 22 3
v 0 0 3.35
v 28 0 3.35
v 28 22 3.35
v 0 22 3.35
f 9 12 11 10
f 9 10 14 13
f 10 11 15 14
f 11 12 16 15
f 12 9 13 16
f 13 14 15 16
o losa_2
usemtl c2
v 0 0 6
v 28 0 6
v 28 22 6
v 0 22 6
v 0 0 6.35
v 28 0 6.35
v 28 22 6.35
v 0 22 6.35
f 17 20 19 18
f 17 18 22 21
f 18 19 23 22
f 19 20 24 23
f 20 17 21 24
f 21 22 23 24
o losa_3
usemtl c3
v 0 0 9
v 28 0 9
v 28 22 9
v 0 22 9
v 0 0 9.35
v 28 0 9.35
v 28 22 9.35
v 0 22 9.35
f 25 28 27 26
f 25 26 30 29
f 26 27 31 30
f 27 28 32 31
f 28 25 29 32
f 29 30 31 32
o columna_4
usemtl c4
v 1 1 0
v 1.5 1 0
v 1.5 1.5 0
v 1 1.5 0
v 1 1 9
v 1.5 1 9
v 1.5 1.5 9
v 1 1.5 9
f 33 36 35 34
f 33 34 38 37
f 34 35 39 38
f 35 36 40 39
f 36 33 37 40
f 37 38 39 40
o columna_5
usemtl c5
v 1 10 0
v 1.5 10 0
v 1.5 10.5 0
v 1 10.5 0
v 1 10 9
v 1.5 10 9
v 1.5 10.5 9
v 1 10.5 9
f 41 44 43 42
f 41 42 46 45
f 42 43 47 46
f 43 44 48 47
f 44 41 45 48
f 45 46 47 48
o columna_6
usemtl c6
v 1 21 0
v 1.5 21 0
v 1.5 21.5 0
v 1 21.5 0
v 1 21 9
v 1.5 21 9
v 1.5 21.5 9
v 1 21.5 9
f 49 52 51 50
f 49 50 54 53
f 50 51 55 54
f 51 52 56 55
f 52 49 53 56
f 53 54 55 56
o columna_7
usemtl c7
v 7.5 1 0
v 8.0 1 0
v 8.0 1.5 0
v 7.5 1.5 0
v 7.5 1 9
v 8.0 1 9
v 8.0 1.5 9
v 7.5 1.5 9
f 57 60 59 58
f 57 58 62 61
f 58 59 63 62
f 59 60 64 63
f 60 57 61 64
f 61 62 63 64
o columna_8
usemtl c8
v 7.5 10 0
v 8.0 10 0
v 8.0 10.5 0
v 7.5 10.5 0
v 7.5 10 9
v 8.0 10 9
v 8.0 10.5 9
v 7.5 10.5 9
f 65 68 67 66
f 65 66 70 69
f 66 67 71 70
f 67 68 72 71
f 68 65 69 72
f 69 70 71 72
o columna_9
usemtl c9
v 7.5 21 0
v 8.0 21 0
v 8.0 21.5 0
v 7.5 21.5 0
v 7.5 21 9
v 8.0 21 9
v 8.0 21.5 9
v 7.5 21.5 9
f 73 76 75 74
f 73 74 78 77
f 74 75 79 78
f 75 76 80 79
f 76 73 77 80
f 77 78 79 80
o columna_10
usemtl c10
v 14 1 0
v 14.5 1 0
v 14.5 1.5 0
v 14 1.5 0
v 14 1 9
v 14.5 1 9
v 14.5 1.5 9
v 14 1.5 9
f 81 84 83 82
f 81 82 86 85
f 82 83 87 86
f 83 84 88 87
f 84 81 85 88
f 85 86 87 88
o columna_11
usemtl c11
v 14 10 0
v 14.5 10 0
v 14.5 10.5 0
v 14 10.5 0
v 14 10 9
v 14.5 10 9
v 14.5 10.5 9
v 14 10.5 9
f 89 92 91 90
f 89 90 94 93
f 90 91 95 94
f 91 92 96 95
f 92 89 93 96
f 93 94 95 96
o columna_12
usemtl c12
v 14 21 0
v 14.5 21 0
v 14.5 21.5 0
v 14 21.5 0
v 14 21 9
v 14.5 21 9
v 14.5 21.5 9
v 14 21.5 9
f 97 100 99 98
f 97 98 102 101
f 98 99 103 102
f 99 100 104 103
f 100 97 101 104
f 101 102 103 104
o columna_13
usemtl c13
v 20.5 1 0
v 21.0 1 0
v 21.0 1.5 0
v 20.5 1.5 0
v 20.5 1 9
v 21.0 1 9
v 21.0 1.5 9
v 20.5 1.5 9
f 105 108 107 106
f 105 106 110 109
f 106 107 111 110
f 107 108 112 111
f 108 105 109 112
f 109 110 111 112
o columna_14
usemtl c14
v 20.5 10 0
v 21.0 10 0
v 21.0 10.5 0
v 20.5 10.5 0
v 20.5 10 9
v 21.0 10 9
v 21.0 10.5 9
v 20.5 10.5 9
f 113 116 115 114
f 113 114 118 117
f 114 115 119 118
f 115 116 120 119
f 116 113 117 120
f 117 118 119 120
o columna_15
usemtl c15
v 20.5 21 0
v 21.0 21 0
v 21.0 21.5 0
v 20.5 21.5 0
v 20.5 21 9
v 21.0 21 9
v 21.0 21.5 9
v 20.5 21.5 9
f 121 124 123 122
f 121 122 126 125
f 122 123 127 126
f 123 124 128 127
f 124 121 125 128
f 125 126 127 128
o columna_16
usemtl c16
v 27 1 0
v 27.5 1 0
v 27.5 1.5 0
v 27 1.5 0
v 27 1 9
v 27.5 1 9
v 27.5 1.5 9
v 27 1.5 9
f 129 132 131 130
f 129 130 134 133
f 130 131 135 134
f 131 132 136 135
f 132 129 133 136
f 133 134 135 136
o columna_17
usemtl c17
v 27 10 0
v 27.5 10 0
v 27.5 10.5 0
v 27 10.5 0
v 27 10 9
v 27.5 10 9
v 27.5 10.5 9
v 27 10.5 9
f 137 140 139 138
f 137 138 142 141
f 138 139 143 142
f 139 140 144 143
f 140 137 141 144
f 141 142 143 144
o columna_18
usemtl c18
v 27 21 0
v 27.5 21 0
v 27.5 21.5 0
v 27 21.5 0
v 27 21 9
v 27.5 21 9
v 27.5 21.5 9
v 27 21.5 9
f 145 148 147 146
f 145 146 150 149
f 146 147 151 150
f 147 148 152 151
f 148 145 149 152
f 149 150 151 152
o antepecho_frontal_19
usemtl c19
v 0 0 1
v 28 0 1
v 28 0.3 1
v 0 0.3 1
v 0 0 1.65
v 28 0 1.65
v 28 0.3 1.65
v 0 0.3 1.65
f 153 156 155 154
f 153 154 158 157
f 154 155 159 158
f 155 156 160 159
f 156 153 157 160
f 157 158 159 160
o antepecho_posterior_20
usemtl c20
v 0 21.7 1
v 28 21.7 1
v 28 22.0 1
v 0 22.0 1
v 0 21.7 1.65
v 28 21.7 1.65
v 28 22.0 1.65
v 0 22.0 1.65
f 161 164 163 162
f 161 162 166 165
f 162 163 167 166
f 163 164 168 167
f 164 161 165 168
f 165 166 167 168
o antepecho_lateral_21
usemtl c21
v 0 0 1
v 0.3 0 1
v 0.3 22 1
v 0 22 1
v 0 0 1.65
v 0.3 0 1.65
v 0.3 22 1.65
v 0 22 1.65
f 169 172 171 170
f 169 170 174 173
f 170 171 175 174
f 171 172 176 175
f 172 169 173 176
f 173 174 175 176
o antepecho_lateral_22
usemtl c22
v 27.7 0 1
v 28.0 0 1
v 28.0 22 1
v 27.7 22 1
v 27.7 0 1.65
v 28.0 0 1.65
v 28.0 22 1.65
v 27.7 22 1.65
f 177 180 179 178
f 177 178 182 181
f 178 179 183 182
f 179 180 184 183
f 180 177 181 184
f 181 182 183 184
o antepecho_frontal_23
usemtl c23
v 0 0 4
v 28 0 4
v 28 0.3 4
v 0 0.3 4
v 0 0 4.65
v 28 0 4.65
v 28 0.3 4.65
v 0 0.3 4.65
f 185 188 187 186
f 185 186 190 189
f 186 187 191 190
f 187 188 192 191
f 188 185 189 192
f 189 190 191 192
o antepecho_posterior_24
usemtl c24
v 0 21.7 4
v 28 21.7 4
v 28 22.0 4
v 0 22.0 4
v 0 21.7 4.65
v 28 21.7 4.65
v 28 22.0 4.65
v 0 22.0 4.65
f 193 196 195 194
f 193 194 198 197
f 194 195 199 198
f 195 196 200 199
f 196 193 197 200
f 197 198 199 200
o antepecho_lateral_25
usemtl c25
v 0 0 4
v 0.3 0 4
v 0.3 22 4
v 0 22 4
v 0 0 4.65
v 0.3 0 4.65
v 0.3 22 4.65
v 0 22 4.65
f 201 204 203 202
f 201 202 206 205
f 202 203 207 206
f 203 204 208 207
f 204 201 205 208
f 205 206 207 208
o antepecho_lateral_26
usemtl c26
v 27.7 0 4
v 28.0 0 4
v 28.0 22 4
v 27.7 22 4
v 27.7 0 4.65
v 28.0 0 4.65
v 28.0 22 4.65
v 27.7 22 4.65
f 209 212 211 210
f 209 210 214 213
f 210 211 215 214
f 211 212 216 215
f 212 209 213 216
f 213 214 215 216
o antepecho_frontal_27
usemtl c27
v 0 0 7
v 28 0 7
v 28 0.3 7
v 0 0.3 7
v 0 0 7.65
v 28 0 7.65
v 28 0.3 7.65
v 0 0.3 7.65
f 217 220 219 218
f 217 218 222 221
f 218 219 223 222
f 219 220 224 223
f 220 217 221 224
f 221 222 223 224
o antepecho_posterior_28
usemtl c28
v 0 21.7 7
v 28 21.7 7
v 28 22.0 7
v 0 22.0 7
v 0 21.7 7.65
v 28 21.7 7.65
v 28 22.0 7.65
v 0 22.0 7.65
f 225 228 227 226
f 225 226 230 229
f 226 227 231 230
f 227 228 232 231
f 228 225 229 232
f 229 230 231 232
o antepecho_lateral_29
usemtl c29
v 0 0 7
v 0.3 0 7
v 0.3 22 7
v 0 22 7
v 0 0 7.65
v 0.3 0 7.65
v 0.3 22 7.65
v 0 22 7.65
f 233 236 235 234
f 233 234 238 237
f 234 235 239 238
f 235 236 240 239
f 236 233 237 240
f 237 238 239 240
o antepecho_lateral_30
usemtl c30
v 27.7 0 7
v 28.0 0 7
v 28.0 22 7
v 27.7 22 7
v 27.7 0 7.65
v 28.0 0 7.65
v 28.0 22 7.65
v 27.7 22 7.65
f 241 244 243 242
f 241 242 246 245
f 242 243 247 246
f 243 244 248 247
f 244 241 245 248
f 245 246 247 248
o soporte_cubierta_31
usemtl c31
v 2 4 9
v 2.25 4 9
v 2.25 4.25 9
v 2 4.25 9
v 2 4 11
v 2.25 4 11
v 2.25 4.25 11
v 2 4.25 11
f 249 252 251 250
f 249 250 254 253
f 250 251 255 254
f 251 252 256 255
f 252 249 253 256
f 253 254 255 256
o soporte_cubierta_32
usemtl c32
v 2 18 9
v 2.25 18 9
v 2.25 18.25 9
v 2 18.25 9
v 2 18 11
v 2.25 18 11
v 2.25 18.25 11
v 2 18.25 11
f 257 260 259 258
f 257 258 262 261
f 258 259 263 262
f 259 260 264 263
f 260 257 261 264
f 261 262 263 264
o soporte_cubierta_33
usemtl c33
v 13 4 9
v 13.25 4 9
v 13.25 4.25 9
v 13 4.25 9
v 13 4 11
v 13.25 4 11
v 13.25 4.25 11
v 13 4.25 11
f 265 268 267 266
f 265 266 270 269
f 266 267 271 270
f 267 268 272 271
f 268 265 269 272
f 269 270 271 272
o soporte_cubierta_34
usemtl c34
v 13 18 9
v 13.25 18 9
v 13.25 18.25 9
v 13 18.25 9
v 13 18 11
v 13.25 18 11
v 13.25 18.25 11
v 13 18.25 11
f 273 276 275 274
f 273 274 278 277
f 274 275 279 278
f 275 276 280 279
f 276 273 277 280
f 277 278 279 280
o soporte_cubierta_35
usemtl c35
v 25 4 9
v 25.25 4 9
v 25.25 4.25 9
v 25 4.25 9
v 25 4 11
v 25.25 4 11
v 25.25 4.25 11
v 25 4.25 11
f 281 284 283 282
f 281 282 286 285
f 282 283 287 286
f 283 284 288 287
f 284 281 285 288
f 285 286 287 288
o soporte_cubierta_36
usemtl c36
v 25 18 9
v 25.25 18 9
v 25.25 18.25 9
v 25 18.25 9
v 25 18 11
v 25.25 18 11
v 25.25 18.25 11
v 25 18.25 11
f 289 292 291 290
f 289 290 294 293
f 290 291 295 294
f 291 292 296 295
f 292 289 293 296
f 293 294 295 296
o panel_cubierta_37
usemtl c37
v 1.0 2.0 11
v 3.75 2.0 11
v 3.75 4.45 11
v 1.0 4.45 11
v 1.0 2.0 11.12
v 3.75 2.0 11.12
v 3.75 4.45 11.12
v 1.0 4.45 11.12
f 297 300 299 298
f 297 298 302 301
f 298 299 303 302
f 299 300 304 303
f 300 297 301 304
f 301 302 303 304
o panel_cubierta_38
usemtl c38
v 1.0 4.6 11
v 3.75 4.6 11
v 3.75 7.05 11
v 1.0 7.05 11
v 1.0 4.6 11.12
v 3.75 4.6 11.12
v 3.75 7.05 11.12
v 1.0 7.05 11.12
f 305 308 307 306
f 305 306 310 309
f 306 307 311 310
f 307 308 312 311
f 308 305 309 312
f 309 310 311 312
o panel_cubierta_39
usemtl c39
v 1.0 7.2 11
v 3.75 7.2 11
v 3.75 9.65 11
v 1.0 9.65 11
v 1.0 7.2 11.12
v 3.75 7.2 11.12
v 3.75 9.65 11.12
v 1.0 9.65 11.12
f 313 316 315 314
f 313 314 318 317
f 314 315 319 318
f 315 316 320 319
f 316 313 317 320
f 317 318 319 320
o panel_cubierta_40
usemtl c40
v 1.0 9.8 11
v 3.75 9.8 11
v 3.75 12.25 11
v 1.0 12.25 11
v 1.0 9.8 11.12
v 3.75 9.8 11.12
v 3.75 12.25 11.12
v 1.0 12.25 11.12
f 321 324 323 322
f 321 322 326 325
f 322 323 327 326
f 323 324 328 327
f 324 321 325 328
f 325 326 327 328
o panel_cubierta_41
usemtl c41
v 1.0 12.4 11
v 3.75 12.4 11
v 3.75 14.850000000000001 11
v 1.0 14.850000000000001 11
v 1.0 12.4 11.12
v 3.75 12.4 11.12
v 3.75 14.850000000000001 11.12
v 1.0 14.850000000000001 11.12
f 329 332 331 330
f 329 330 334 333
f 330 331 335 334
f 331 332 336 335
f 332 329 333 336
f 333 334 335 336
o panel_cubierta_42
usemtl c42
v 1.0 15.0 11
v 3.75 15.0 11
v 3.75 17.45 11
v 1.0 17.45 11
v 1.0 15.0 11.12
v 3.75 15.0 11.12
v 3.75 17.45 11.12
v 1.0 17.45 11.12
f 337 340 339 338
f 337 338 342 341
f 338 339 343 342
f 339 340 344 343
f 340 337 341 344
f 341 342 343 344
o panel_cubierta_43
usemtl c43
v 1.0 17.6 11
v 3.75 17.6 11
v 3.75 20.05 11
v 1.0 20.05 11
v 1.0 17.6 11.12
v 3.75 17.6 11.12
v 3.75 20.05 11.12
v 1.0 20.05 11.12
f 345 348 347 346
f 345 346 350 349
f 346 347 351 350
f 347 348 352 351
f 348 345 349 352
f 349 350 351 352
o panel_cubierta_44
usemtl c44
v 3.9 2.0 11
v 6.65 2.0 11
v 6.65 4.45 11
v 3.9 4.45 11
v 3.9 2.0 11.12
v 6.65 2.0 11.12
v 6.65 4.45 11.12
v 3.9 4.45 11.12
f 353 356 355 354
f 353 354 358 357
f 354 355 359 358
f 355 356 360 359
f 356 353 357 360
f 357 358 359 360
o panel_cubierta_45
usemtl c45
v 3.9 4.6 11
v 6.65 4.6 11
v 6.65 7.05 11
v 3.9 7.05 11
v 3.9 4.6 11.12
v 6.65 4.6 11.12
v 6.65 7.05 11.12
v 3.9 7.05 11.12
f 361 364 363 362
f 361 362 366 365
f 362 363 367 366
f 363 364 368 367
f 364 361 365 368
f 365 366 367 368
o panel_cubierta_46
usemtl c46
v 3.9 7.2 11
v 6.65 7.2 11
v 6.65 9.65 11
v 3.9 9.65 11
v 3.9 7.2 11.12
v 6.65 7.2 11.12
v 6.65 9.65 11.12
v 3.9 9.65 11.12
f 369 372 371 370
f 369 370 374 373
f 370 371 375 374
f 371 372 376 375
f 372 369 373 376
f 373 374 375 376
o panel_cubierta_47
usemtl c47
v 3.9 9.8 11
v 6.65 9.8 11
v 6.65 12.25 11
v 3.9 12.25 11
v 3.9 9.8 11.12
v 6.65 9.8 11.12
v 6.65 12.25 11.12
v 3.9 12.25 11.12
f 377 380 379 378
f 377 378 382 381
f 378 379 383 382
f 379 380 384 383
f 380 377 381 384
f 381 382 383 384
o panel_cubierta_48
usemtl c48
v 3.9 12.4 11
v 6.65 12.4 11
v 6.65 14.850000000000001 11
v 3.9 14.850000000000001 11
v 3.9 12.4 11.12
v 6.65 12.4 11.12
v 6.65 14.850000000000001 11.12
v 3.9 14.850000000000001 11.12
f 385 388 387 386
f 385 386 390 389
f 386 387 391 390
f 387 388 392 391
f 388 385 389 392
f 389 390 391 392
o panel_cubierta_49
usemtl c49
v 3.9 15.0 11
v 6.65 15.0 11
v 6.65 17.45 11
v 3.9 17.45 11
v 3.9 15.0 11.12
v 6.65 15.0 11.12
v 6.65 17.45 11.12
v 3.9 17.45 11.12
f 393 396 395 394
f 393 394 398 397
f 394 395 399 398
f 395 396 400 399
f 396 393 397 400
f 397 398 399 400
o panel_cubierta_50
usemtl c50
v 3.9 17.6 11
v 6.65 17.6 11
v 6.65 20.05 11
v 3.9 20.05 11
v 3.9 17.6 11.12
v 6.65 17.6 11.12
v 6.65 20.05 11.12
v 3.9 20.05 11.12
f 401 404 403 402
f 401 402 406 405
f 402 403 407 406
f 403 404 408 407
f 404 401 405 408
f 405 406 407 408
o panel_cubierta_51
usemtl c51
v 6.8 2.0 11
v 9.55 2.0 11
v 9.55 4.45 11
v 6.8 4.45 11
v 6.8 2.0 11.12
v 9.55 2.0 11.12
v 9.55 4.45 11.12
v 6.8 4.45 11.12
f 409 412 411 410
f 409 410 414 413
f 410 411 415 414
f 411 412 416 415
f 412 409 413 416
f 413 414 415 416
o panel_cubierta_52
usemtl c52
v 6.8 4.6 11
v 9.55 4.6 11
v 9.55 7.05 11
v 6.8 7.05 11
v 6.8 4.6 11.12
v 9.55 4.6 11.12
v 9.55 7.05 11.12
v 6.8 7.05 11.12
f 417 420 419 418
f 417 418 422 421
f 418 419 423 422
f 419 420 424 423
f 420 417 421 424
f 421 422 423 424
o panel_cubierta_53
usemtl c53
v 6.8 7.2 11
v 9.55 7.2 11
v 9.55 9.65 11
v 6.8 9.65 11
v 6.8 7.2 11.12
v 9.55 7.2 11.12
v 9.55 9.65 11.12
v 6.8 9.65 11.12
f 425 428 427 426
f 425 426 430 429
f 426 427 431 430
f 427 428 432 431
f 428 425 429 432
f 429 430 431 432
o panel_cubierta_54
usemtl c54
v 6.8 9.8 11
v 9.55 9.8 11
v 9.55 12.25 11
v 6.8 12.25 11
v 6.8 9.8 11.12
v 9.55 9.8 11.12
v 9.55 12.25 11.12
v 6.8 12.25 11.12
f 433 436 435 434
f 433 434 438 437
f 434 435 439 438
f 435 436 440 439
f 436 433 437 440
f 437 438 439 440
o panel_cubierta_55
usemtl c55
v 6.8 12.4 11
v 9.55 12.4 11
v 9.55 14.850000000000001 11
v 6.8 14.850000000000001 11
v 6.8 12.4 11.12
v 9.55 12.4 11.12
v 9.55 14.850000000000001 11.12
v 6.8 14.850000000000001 11.12
f 441 444 443 442
f 441 442 446 445
f 442 443 447 446
f 443 444 448 447
f 444 441 445 448
f 445 446 447 448
o panel_cubierta_56
usemtl c56
v 6.8 15.0 11
v 9.55 15.0 11
v 9.55 17.45 11
v 6.8 17.45 11
v 6.8 15.0 11.12
v 9.55 15.0 11.12
v 9.55 17.45 11.12
v 6.8 17.45 11.12
f 449 452 451 450
f 449 450 454 453
f 450 451 455 454
f 451 452 456 455
f 452 449 453 456
f 453 454 455 456
o panel_cubierta_57
usemtl c57
v 6.8 17.6 11
v 9.55 17.6 11
v 9.55 20.05 11
v 6.8 20.05 11
v 6.8 17.6 11.12
v 9.55 17.6 11.12
v 9.55 20.05 11.12
v 6.8 20.05 11.12
f 457 460 459 458
f 457 458 462 461
f 458 459 463 462
f 459 460 464 463
f 460 457 461 464
f 461 462 463 464
o panel_cubierta_58
usemtl c58
v 9.7 2.0 11
v 12.45 2.0 11
v 12.45 4.45 11
v 9.7 4.45 11
v 9.7 2.0 11.12
v 12.45 2.0 11.12
v 12.45 4.45 11.12
v 9.7 4.45 11.12
f 465 468 467 466
f 465 466 470 469
f 466 467 471 470
f 467 468 472 471
f 468 465 469 472
f 469 470 471 472
o panel_cubierta_59
usemtl c59
v 9.7 4.6 11
v 12.45 4.6 11
v 12.45 7.05 11
v 9.7 7.05 11
v 9.7 4.6 11.12
v 12.45 4.6 11.12
v 12.45 7.05 11.12
v 9.7 7.05 11.12
f 473 476 475 474
f 473 474 478 477
f 474 475 479 478
f 475 476 480 479
f 476 473 477 480
f 477 478 479 480
o panel_cubierta_60
usemtl c60
v 9.7 7.2 11
v 12.45 7.2 11
v 12.45 9.65 11
v 9.7 9.65 11
v 9.7 7.2 11.12
v 12.45 7.2 11.12
v 12.45 9.65 11.12
v 9.7 9.65 11.12
f 481 484 483 482
f 481 482 486 485
f 482 483 487 486
f 483 484 488 487
f 484 481 485 488
f 485 486 487 488
o panel_cubierta_61
usemtl c61
v 9.7 9.8 11
v 12.45 9.8 11
v 12.45 12.25 11
v 9.7 12.25 11
v 9.7 9.8 11.12
v 12.45 9.8 11.12
v 12.45 12.25 11.12
v 9.7 12.25 11.12
f 489 492 491 490
f 489 490 494 493
f 490 491 495 494
f 491 492 496 495
f 492 489 493 496
f 493 494 495 496
o panel_cubierta_62
usemtl c62
v 9.7 12.4 11
v 12.45 12.4 11
v 12.45 14.850000000000001 11
v 9.7 14.850000000000001 11
v 9.7 12.4 11.12
v 12.45 12.4 11.12
v 12.45 14.850000000000001 11.12
v 9.7 14.850000000000001 11.12
f 497 500 499 498
f 497 498 502 501
f 498 499 503 502
f 499 500 504 503
f 500 497 501 504
f 501 502 503 504
o panel_cubierta_63
usemtl c63
v 9.7 15.0 11
v 12.45 15.0 11
v 12.45 17.45 11
v 9.7 17.45 11
v 9.7 15.0 11.12
v 12.45 15.0 11.12
v 12.45 17.45 11.12
v 9.7 17.45 11.12
f 505 508 507 506
f 505 506 510 509
f 506 507 511 510
f 507 508 512 511
f 508 505 509 512
f 509 510 511 512
o panel_cubierta_64
usemtl c64
v 9.7 17.6 11
v 12.45 17.6 11
v 12.45 20.05 11
v 9.7 20.05 11
v 9.7 17.6 11.12
v 12.45 17.6 11.12
v 12.45 20.05 11.12
v 9.7 20.05 11.12
f 513 516 515 514
f 513 514 518 517
f 514 515 519 518
f 515 516 520 519
f 516 513 517 520
f 517 518 519 520
o panel_cubierta_65
usemtl c65
v 12.6 2.0 11
v 15.35 2.0 11
v 15.35 4.45 11
v 12.6 4.45 11
v 12.6 2.0 11.12
v 15.35 2.0 11.12
v 15.35 4.45 11.12
v 12.6 4.45 11.12
f 521 524 523 522
f 521 522 526 525
f 522 523 527 526
f 523 524 528 527
f 524 521 525 528
f 525 526 527 528
o panel_cubierta_66
usemtl c66
v 12.6 4.6 11
v 15.35 4.6 11
v 15.35 7.05 11
v 12.6 7.05 11
v 12.6 4.6 11.12
v 15.35 4.6 11.12
v 15.35 7.05 11.12
v 12.6 7.05 11.12
f 529 532 531 530
f 529 530 534 533
f 530 531 535 534
f 531 532 536 535
f 532 529 533 536
f 533 534 535 536
o panel_cubierta_67
usemtl c67
v 12.6 7.2 11
v 15.35 7.2 11
v 15.35 9.65 11
v 12.6 9.65 11
v 12.6 7.2 11.12
v 15.35 7.2 11.12
v 15.35 9.65 11.12
v 12.6 9.65 11.12
f 537 540 539 538
f 537 538 542 541
f 538 539 543 542
f 539 540 544 543
f 540 537 541 544
f 541 542 543 544
o panel_cubierta_68
usemtl c68
v 12.6 9.8 11
v 15.35 9.8 11
v 15.35 12.25 11
v 12.6 12.25 11
v 12.6 9.8 11.12
v 15.35 9.8 11.12
v 15.35 12.25 11.12
v 12.6 12.25 11.12
f 545 548 547 546
f 545 546 550 549
f 546 547 551 550
f 547 548 552 551
f 548 545 549 552
f 549 550 551 552
o panel_cubierta_69
usemtl c69
v 12.6 12.4 11
v 15.35 12.4 11
v 15.35 14.850000000000001 11
v 12.6 14.850000000000001 11
v 12.6 12.4 11.12
v 15.35 12.4 11.12
v 15.35 14.850000000000001 11.12
v 12.6 14.850000000000001 11.12
f 553 556 555 554
f 553 554 558 557
f 554 555 559 558
f 555 556 560 559
f 556 553 557 560
f 557 558 559 560
o panel_cubierta_70
usemtl c70
v 12.6 15.0 11
v 15.35 15.0 11
v 15.35 17.45 11
v 12.6 17.45 11
v 12.6 15.0 11.12
v 15.35 15.0 11.12
v 15.35 17.45 11.12
v 12.6 17.45 11.12
f 561 564 563 562
f 561 562 566 565
f 562 563 567 566
f 563 564 568 567
f 564 561 565 568
f 565 566 567 568
o panel_cubierta_71
usemtl c71
v 12.6 17.6 11
v 15.35 17.6 11
v 15.35 20.05 11
v 12.6 20.05 11
v 12.6 17.6 11.12
v 15.35 17.6 11.12
v 15.35 20.05 11.12
v 12.6 20.05 11.12
f 569 572 571 570
f 569 570 574 573
f 570 571 575 574
f 571 572 576 575
f 572 569 573 576
f 573 574 575 576
o panel_cubierta_72
usemtl c72
v 15.5 2.0 11
v 18.25 2.0 11
v 18.25 4.45 11
v 15.5 4.45 11
v 15.5 2.0 11.12
v 18.25 2.0 11.12
v 18.25 4.45 11.12
v 15.5 4.45 11.12
f 577 580 579 578
f 577 578 582 581
f 578 579 583 582
f 579 580 584 583
f 580 577 581 584
f 581 582 583 584
o panel_cubierta_73
usemtl c73
v 15.5 4.6 11
v 18.25 4.6 11
v 18.25 7.05 11
v 15.5 7.05 11
v 15.5 4.6 11.12
v 18.25 4.6 11.12
v 18.25 7.05 11.12
v 15.5 7.05 11.12
f 585 588 587 586
f 585 586 590 589
f 586 587 591 590
f 587 588 592 591
f 588 585 589 592
f 589 590 591 592
o panel_cubierta_74
usemtl c74
v 15.5 7.2 11
v 18.25 7.2 11
v 18.25 9.65 11
v 15.5 9.65 11
v 15.5 7.2 11.12
v 18.25 7.2 11.12
v 18.25 9.65 11.12
v 15.5 9.65 11.12
f 593 596 595 594
f 593 594 598 597
f 594 595 599 598
f 595 596 600 599
f 596 593 597 600
f 597 598 599 600
o panel_cubierta_75
usemtl c75
v 15.5 9.8 11
v 18.25 9.8 11
v 18.25 12.25 11
v 15.5 12.25 11
v 15.5 9.8 11.12
v 18.25 9.8 11.12
v 18.25 12.25 11.12
v 15.5 12.25 11.12
f 601 604 603 602
f 601 602 606 605
f 602 603 607 606
f 603 604 608 607
f 604 601 605 608
f 605 606 607 608
o panel_cubierta_76
usemtl c76
v 15.5 12.4 11
v 18.25 12.4 11
v 18.25 14.850000000000001 11
v 15.5 14.850000000000001 11
v 15.5 12.4 11.12
v 18.25 12.4 11.12
v 18.25 14.850000000000001 11.12
v 15.5 14.850000000000001 11.12
f 609 612 611 610
f 609 610 614 613
f 610 611 615 614
f 611 612 616 615
f 612 609 613 616
f 613 614 615 616
o panel_cubierta_77
usemtl c77
v 15.5 15.0 11
v 18.25 15.0 11
v 18.25 17.45 11
v 15.5 17.45 11
v 15.5 15.0 11.12
v 18.25 15.0 11.12
v 18.25 17.45 11.12
v 15.5 17.45 11.12
f 617 620 619 618
f 617 618 622 621
f 618 619 623 622
f 619 620 624 623
f 620 617 621 624
f 621 622 623 624
o panel_cubierta_78
usemtl c78
v 15.5 17.6 11
v 18.25 17.6 11
v 18.25 20.05 11
v 15.5 20.05 11
v 15.5 17.6 11.12
v 18.25 17.6 11.12
v 18.25 20.05 11.12
v 15.5 20.05 11.12
f 625 628 627 626
f 625 626 630 629
f 626 627 631 630
f 627 628 632 631
f 628 625 629 632
f 629 630 631 632
o panel_cubierta_79
usemtl c79
v 18.4 2.0 11
v 21.15 2.0 11
v 21.15 4.45 11
v 18.4 4.45 11
v 18.4 2.0 11.12
v 21.15 2.0 11.12
v 21.15 4.45 11.12
v 18.4 4.45 11.12
f 633 636 635 634
f 633 634 638 637
f 634 635 639 638
f 635 636 640 639
f 636 633 637 640
f 637 638 639 640
o panel_cubierta_80
usemtl c80
v 18.4 4.6 11
v 21.15 4.6 11
v 21.15 7.05 11
v 18.4 7.05 11
v 18.4 4.6 11.12
v 21.15 4.6 11.12
v 21.15 7.05 11.12
v 18.4 7.05 11.12
f 641 644 643 642
f 641 642 646 645
f 642 643 647 646
f 643 644 648 647
f 644 641 645 648
f 645 646 647 648
o panel_cubierta_81
usemtl c81
v 18.4 7.2 11
v 21.15 7.2 11
v 21.15 9.65 11
v 18.4 9.65 11
v 18.4 7.2 11.12
v 21.15 7.2 11.12
v 21.15 9.65 11.12
v 18.4 9.65 11.12
f 649 652 651 650
f 649 650 654 653
f 650 651 655 654
f 651 652 656 655
f 652 649 653 656
f 653 654 655 656
o panel_cubierta_82
usemtl c82
v 18.4 9.8 11
v 21.15 9.8 11
v 21.15 12.25 11
v 18.4 12.25 11
v 18.4 9.8 11.12
v 21.15 9.8 11.12
v 21.15 12.25 11.12
v 18.4 12.25 11.12
f 657 660 659 658
f 657 658 662 661
f 658 659 663 662
f 659 660 664 663
f 660 657 661 664
f 661 662 663 664
o panel_cubierta_83
usemtl c83
v 18.4 12.4 11
v 21.15 12.4 11
v 21.15 14.850000000000001 11
v 18.4 14.850000000000001 11
v 18.4 12.4 11.12
v 21.15 12.4 11.12
v 21.15 14.850000000000001 11.12
v 18.4 14.850000000000001 11.12
f 665 668 667 666
f 665 666 670 669
f 666 667 671 670
f 667 668 672 671
f 668 665 669 672
f 669 670 671 672
o panel_cubierta_84
usemtl c84
v 18.4 15.0 11
v 21.15 15.0 11
v 21.15 17.45 11
v 18.4 17.45 11
v 18.4 15.0 11.12
v 21.15 15.0 11.12
v 21.15 17.45 11.12
v 18.4 17.45 11.12
f 673 676 675 674
f 673 674 678 677
f 674 675 679 678
f 675 676 680 679
f 676 673 677 680
f 677 678 679 680
o panel_cubierta_85
usemtl c85
v 18.4 17.6 11
v 21.15 17.6 11
v 21.15 20.05 11
v 18.4 20.05 11
v 18.4 17.6 11.12
v 21.15 17.6 11.12
v 21.15 20.05 11.12
v 18.4 20.05 11.12
f 681 684 683 682
f 681 682 686 685
f 682 683 687 686
f 683 684 688 687
f 684 681 685 688
f 685 686 687 688
o panel_cubierta_86
usemtl c86
v 21.3 2.0 11
v 24.05 2.0 11
v 24.05 4.45 11
v 21.3 4.45 11
v 21.3 2.0 11.12
v 24.05 2.0 11.12
v 24.05 4.45 11.12
v 21.3 4.45 11.12
f 689 692 691 690
f 689 690 694 693
f 690 691 695 694
f 691 692 696 695
f 692 689 693 696
f 693 694 695 696
o panel_cubierta_87
usemtl c87
v 21.3 4.6 11
v 24.05 4.6 11
v 24.05 7.05 11
v 21.3 7.05 11
v 21.3 4.6 11.12
v 24.05 4.6 11.12
v 24.05 7.05 11.12
v 21.3 7.05 11.12
f 697 700 699 698
f 697 698 702 701
f 698 699 703 702
f 699 700 704 703
f 700 697 701 704
f 701 702 703 704
o panel_cubierta_88
usemtl c88
v 21.3 7.2 11
v 24.05 7.2 11
v 24.05 9.65 11
v 21.3 9.65 11
v 21.3 7.2 11.12
v 24.05 7.2 11.12
v 24.05 9.65 11.12
v 21.3 9.65 11.12
f 705 708 707 706
f 705 706 710 709
f 706 707 711 710
f 707 708 712 711
f 708 705 709 712
f 709 710 711 712
o panel_cubierta_89
usemtl c89
v 21.3 9.8 11
v 24.05 9.8 11
v 24.05 12.25 11
v 21.3 12.25 11
v 21.3 9.8 11.12
v 24.05 9.8 11.12
v 24.05 12.25 11.12
v 21.3 12.25 11.12
f 713 716 715 714
f 713 714 718 717
f 714 715 719 718
f 715 716 720 719
f 716 713 717 720
f 717 718 719 720
o panel_cubierta_90
usemtl c90
v 21.3 12.4 11
v 24.05 12.4 11
v 24.05 14.850000000000001 11
v 21.3 14.850000000000001 11
v 21.3 12.4 11.12
v 24.05 12.4 11.12
v 24.05 14.850000000000001 11.12
v 21.3 14.850000000000001 11.12
f 721 724 723 722
f 721 722 726 725
f 722 723 727 726
f 723 724 728 727
f 724 721 725 728
f 725 726 727 728
o panel_cubierta_91
usemtl c91
v 21.3 15.0 11
v 24.05 15.0 11
v 24.05 17.45 11
v 21.3 17.45 11
v 21.3 15.0 11.12
v 24.05 15.0 11.12
v 24.05 17.45 11.12
v 21.3 17.45 11.12
f 729 732 731 730
f 729 730 734 733
f 730 731 735 734
f 731 732 736 735
f 732 729 733 736
f 733 734 735 736
o panel_cubierta_92
usemtl c92
v 21.3 17.6 11
v 24.05 17.6 11
v 24.05 20.05 11
v 21.3 20.05 11
v 21.3 17.6 11.12
v 24.05 17.6 11.12
v 24.05 20.05 11.12
v 21.3 20.05 11.12
f 737 740 739 738
f 737 738 742 741
f 738 739 743 742
f 739 740 744 743
f 740 737 741 744
f 741 742 743 744
o panel_cubierta_93
usemtl c93
v 24.2 2.0 11
v 26.95 2.0 11
v 26.95 4.45 11
v 24.2 4.45 11
v 24.2 2.0 11.12
v 26.95 2.0 11.12
v 26.95 4.45 11.12
v 24.2 4.45 11.12
f 745 748 747 746
f 745 746 750 749
f 746 747 751 750
f 747 748 752 751
f 748 745 749 752
f 749 750 751 752
o panel_cubierta_94
usemtl c94
v 24.2 4.6 11
v 26.95 4.6 11
v 26.95 7.05 11
v 24.2 7.05 11
v 24.2 4.6 11.12
v 26.95 4.6 11.12
v 26.95 7.05 11.12
v 24.2 7.05 11.12
f 753 756 755 754
f 753 754 758 757
f 754 755 759 758
f 755 756 760 759
f 756 753 757 760
f 757 758 759 760
o panel_cubierta_95
usemtl c95
v 24.2 7.2 11
v 26.95 7.2 11
v 26.95 9.65 11
v 24.2 9.65 11
v 24.2 7.2 11.12
v 26.95 7.2 11.12
v 26.95 9.65 11.12
v 24.2 9.65 11.12
f 761 764 763 762
f 761 762 766 765
f 762 763 767 766
f 763 764 768 767
f 764 761 765 768
f 765 766 767 768
o panel_cubierta_96
usemtl c96
v 24.2 9.8 11
v 26.95 9.8 11
v 26.95 12.25 11
v 24.2 12.25 11
v 24.2 9.8 11.12
v 26.95 9.8 11.12
v 26.95 12.25 11.12
v 24.2 12.25 11.12
f 769 772 771 770
f 769 770 774 773
f 770 771 775 774
f 771 772 776 775
f 772 769 773 776
f 773 774 775 776
o panel_cubierta_97
usemtl c97
v 24.2 12.4 11
v 26.95 12.4 11
v 26.95 14.850000000000001 11
v 24.2 14.850000000000001 11
v 24.2 12.4 11.12
v 26.95 12.4 11.12
v 26.95 14.850000000000001 11.12
v 24.2 14.850000000000001 11.12
f 777 780 779 778
f 777 778 782 781
f 778 779 783 782
f 779 780 784 783
f 780 777 781 784
f 781 782 783 784
o panel_cubierta_98
usemtl c98
v 24.2 15.0 11
v 26.95 15.0 11
v 26.95 17.45 11
v 24.2 17.45 11
v 24.2 15.0 11.12
v 26.95 15.0 11.12
v 26.95 17.45 11.12
v 24.2 17.45 11.12
f 785 788 787 786
f 785 786 790 789
f 786 787 791 790
f 787 788 792 791
f 788 785 789 792
f 789 790 791 792
o panel_cubierta_99
usemtl c99
v 24.2 17.6 11
v 26.95 17.6 11
v 26.95 20.05 11
v 24.2 20.05 11
v 24.2 17.6 11.12
v 26.95 17.6 11.12
v 26.95 20.05 11.12
v 24.2 20.05 11.12
f 793 796 795 794
f 793 794 798 797
f 794 795 799 798
f 795 796 800 799
f 796 793 797 800
f 797 798 799 800