# Unidades relativas; Z arriba. No usar como levantamiento medido.
mtllib modelo.mtl
o ala_izquierda_0
usemtl c0
v 0 0 0
v 6 0 0
v 6 29 0
v 0 29 0
v 0 0 9
v 6 0 9
v 6 29 9
v 0 29 9
f 1 4 3 2
f 1 2 6 5
f 2 3 7 6
f 3 4 8 7
f 4 1 5 8
f 5 6 7 8
o ala_izquierda_cornisa_1
usemtl c1
v -0.15 -0.15 9
v 6.1499999999999995 -0.15 9
v 6.1499999999999995 29.150000000000002 9
v -0.15 29.150000000000002 9
v -0.15 -0.15 9.25
v 6.1499999999999995 -0.15 9.25
v 6.1499999999999995 29.150000000000002 9.25
v -0.15 29.150000000000002 9.25
f 9 12 11 10
f 9 10 14 13
f 10 11 15 14
f 11 12 16 15
f 12 9 13 16
f 13 14 15 16
o ala_derecha_2
usemtl c2
v 28 0 0
v 34 0 0
v 34 29 0
v 28 29 0
v 28 0 9
v 34 0 9
v 34 29 9
v 28 29 9
f 17 20 19 18
f 17 18 22 21
f 18 19 23 22
f 19 20 24 23
f 20 17 21 24
f 21 22 23 24
o ala_derecha_cornisa_3
usemtl c3
v 27.85 -0.15 9
v 34.15 -0.15 9
v 34.15 29.150000000000002 9
v 27.85 29.150000000000002 9
v 27.85 -0.15 9.25
v 34.15 -0.15 9.25
v 34.15 29.150000000000002 9.25
v 27.85 29.150000000000002 9.25
f 25 28 27 26
f 25 26 30 29
f 26 27 31 30
f 27 28 32 31
f 28 25 29 32
f 29 30 31 32
o escenario_4
usemtl c4
v 6 23 0
v 28 23 0
v 28 29 0
v 6 29 0
v 6 23 11
v 28 23 11
v 28 29 11
v 6 29 11
f 33 36 35 34
f 33 34 38 37
f 34 35 39 38
f 35 36 40 39
f 36 33 37 40
f 37 38 39 40
o escenario_cornisa_5
usemtl c5
v 5.85 22.85 11
v 28.15 22.85 11
v 28.15 29.150000000000002 11
v 5.85 29.150000000000002 11
v 5.85 22.85 11.25
v 28.15 22.85 11.25
v 28.15 29.150000000000002 11.25
v 5.85 29.150000000000002 11.25
f 41 44 43 42
f 41 42 46 45
f 42 43 47 46
f 43 44 48 47
f 44 41 45 48
f 45 46 47 48
o acceso_6
usemtl c6
v 0 0 0
v 34 0 0
v 34 5 0
v 0 5 0
v 0 0 6
v 34 0 6
v 34 5 6
v 0 5 6
f 49 52 51 50
f 49 50 54 53
f 50 51 55 54
f 51 52 56 55
f 52 49 53 56
f 53 54 55 56
o acceso_cornisa_7
usemtl c7
v -0.15 -0.15 6
v 34.15 -0.15 6
v 34.15 5.1499999999999995 6
v -0.15 5.1499999999999995 6
v -0.15 -0.15 6.25
v 34.15 -0.15 6.25
v 34.15 5.1499999999999995 6.25
v -0.15 5.1499999999999995 6.25
f 57 60 59 58
f 57 58 62 61
f 58 59 63 62
f 59 60 64 63
f 60 57 61 64
f 61 62 63 64
o grada_8
usemtl c8
v 8 6.0 0
v 26 6.0 0
v 26 7.5 0
v 8 7.5 0
v 8 6.0 0.4
v 26 6.0 0.4
v 26 7.5 0.4
v 8 7.5 0.4
f 65 68 67 66
f 65 66 70 69
f 66 67 71 70
f 67 68 72 71
f 68 65 69 72
f 69 70 71 72
o grada_9
usemtl c9
v 8 7.5 0
v 26 7.5 0
v 26 9.0 0
v 8 9.0 0
v 8 7.5 0.76
v 26 7.5 0.76
v 26 9.0 0.76
v 8 9.0 0.76
f 73 76 75 74
f 73 74 78 77
f 74 75 79 78
f 75 76 80 79
f 76 73 77 80
f 77 78 79 80
o grada_10
usemtl c10
v 8 9.0 0
v 26 9.0 0
v 26 10.5 0
v 8 10.5 0
v 8 9.0 1.12
v 26 9.0 1.12
v 26 10.5 1.12
v 8 10.5 1.12
f 81 84 83 82
f 81 82 86 85
f 82 83 87 86
f 83 84 88 87
f 84 81 85 88
f 85 86 87 88
o grada_11
usemtl c11
v 8 10.5 0
v 26 10.5 0
v 26 12.0 0
v 8 12.0 0
v 8 10.5 1.48
v 26 10.5 1.48
v 26 12.0 1.48
v 8 12.0 1.48
f 89 92 91 90
f 89 90 94 93
f 90 91 95 94
f 91 92 96 95
f 92 89 93 96
f 93 94 95 96
o grada_12
usemtl c12
v 8 12.0 0
v 26 12.0 0
v 26 13.5 0
v 8 13.5 0
v 8 12.0 1.8399999999999999
v 26 12.0 1.8399999999999999
v 26 13.5 1.8399999999999999
v 8 13.5 1.8399999999999999
f 97 100 99 98
f 97 98 102 101
f 98 99 103 102
f 99 100 104 103
f 100 97 101 104
f 101 102 103 104
o grada_13
usemtl c13
v 8 13.5 0
v 26 13.5 0
v 26 15.0 0
v 8 15.0 0
v 8 13.5 2.1999999999999997
v 26 13.5 2.1999999999999997
v 26 15.0 2.1999999999999997
v 8 15.0 2.1999999999999997
f 105 108 107 106
f 105 106 110 109
f 106 107 111 110
f 107 108 112 111
f 108 105 109 112
f 109 110 111 112
o grada_14
usemtl c14
v 8 15.0 0
v 26 15.0 0
v 26 16.5 0
v 8 16.5 0
v 8 15.0 2.56
v 26 15.0 2.56
v 26 16.5 2.56
v 8 16.5 2.56
f 113 116 115 114
f 113 114 118 117
f 114 115 119 118
f 115 116 120 119
f 116 113 117 120
f 117 118 119 120
o grada_15
usemtl c15
v 8 16.5 0
v 26 16.5 0
v 26 18.0 0
v 8 18.0 0
v 8 16.5 2.92
v 26 16.5 2.92
v 26 18.0 2.92
v 8 18.0 2.92
f 121 124 123 122
f 121 122 126 125
f 122 123 127 126
f 123 124 128 127
f 124 121 125 128
f 125 126 127 128
o plataforma_16
usemtl c16
v 7 21 0
v 27 21 0
v 27 24 0
v 7 24 0
v 7 21 2
v 27 21 2
v 27 24 2
v 7 24 2
f 129 132 131 130
f 129 130 134 133
f 130 131 135 134
f 131 132 136 135
f 132 129 133 136
f 133 134 135 136
o vano_referencial_17
usemtl c17
v 1.0 -0.04 1
v 2.4 -0.04 1
v 2.4 0.030000000000000006 1
v 1.0 0.030000000000000006 1
v 1.0 -0.04 3.4
v 2.4 -0.04 3.4
v 2.4 0.030000000000000006 3.4
v 1.0 0.030000000000000006 3.4
f 137 140 139 138
f 137 138 142 141
f 138 139 143 142
f 139 140 144 143
f 140 137 141 144
f 141 142 143 144
o vano_referencial_18
usemtl c18
v 3.7 -0.04 1
v 5.1 -0.04 1
v 5.1 0.030000000000000006 1
v 3.7 0.030000000000000006 1
v 3.7 -0.04 3.4
v 5.1 -0.04 3.4
v 5.1 0.030000000000000006 3.4
v 3.7 0.030000000000000006 3.4
f 145 148 147 146
f 145 146 150 149
f 146 147 151 150
f 147 148 152 151
f 148 145 149 152
f 149 150 151 152
o vano_referencial_19
usemtl c19
v 6.4 -0.04 1
v 7.800000000000001 -0.04 1
v 7.800000000000001 0.030000000000000006 1
v 6.4 0.030000000000000006 1
v 6.4 -0.04 3.4
v 7.800000000000001 -0.04 3.4
v 7.800000000000001 0.030000000000000006 3.4
v 6.4 0.030000000000000006 3.4
f 153 156 155 154
f 153 154 158 157
f 154 155 159 158
f 155 156 160 159
f 156 153 157 160
f 157 158 159 160
o vano_referencial_20
usemtl c20
v 9.100000000000001 -0.04 1
v 10.500000000000002 -0.04 1
v 10.500000000000002 0.030000000000000006 1
v 9.100000000000001 0.030000000000000006 1
v 9.100000000000001 -0.04 3.4
v 10.500000000000002 -0.04 3.4
v 10.500000000000002 0.030000000000000006 3.4
v 9.100000000000001 0.030000000000000006 3.4
f 161 164 163 162
f 161 162 166 165
f 162 163 167 166
f 163 164 168 167
f 164 161 165 168
f 165 166 167 168
o vano_referencial_21
usemtl c21
v 11.8 -0.04 1
v 13.200000000000001 -0.04 1
v 13.200000000000001 0.030000000000000006 1
v 11.8 0.030000000000000006 1
v 11.8 -0.04 3.4
v 13.200000000000001 -0.04 3.4
v 13.200000000000001 0.030000000000000006 3.4
v 11.8 0.030000000000000006 3.4
f 169 172 171 170
f 169 170 174 173
f 170 171 175 174
f 171 172 176 175
f 172 169 173 176
f 173 174 175 176
o vano_referencial_22
usemtl c22
v 14.5 -0.04 1
v 15.9 -0.04 1
v 15.9 0.030000000000000006 1
v 14.5 0.030000000000000006 1
v 14.5 -0.04 3.4
v 15.9 -0.04 3.4
v 15.9 0.030000000000000006 3.4
v 14.5 0.030000000000000006 3.4
f 177 180 179 178
f 177 178 182 181
f 178 179 183 182
f 179 180 184 183
f 180 177 181 184
f 181 182 183 184
o vano_referencial_23
usemtl c23
v 17.200000000000003 -0.04 1
v 18.6 -0.04 1
v 18.6 0.030000000000000006 1
v 17.200000000000003 0.030000000000000006 1
v 17.200000000000003 -0.04 3.4
v 18.6 -0.04 3.4
v 18.6 0.030000000000000006 3.4
v 17.200000000000003 0.030000000000000006 3.4
f 185 188 187 186
f 185 186 190 189
f 186 187 191 190
f 187 188 192 191
f 188 185 189 192
f 189 190 191 192
o vano_referencial_24
usemtl c24
v 19.900000000000002 -0.04 1
v 21.3 -0.04 1
v 21.3 0.030000000000000006 1
v 19.900000000000002 0.030000000000000006 1
v 19.900000000000002 -0.04 3.4
v 21.3 -0.04 3.4
v 21.3 0.030000000000000006 3.4
v 19.900000000000002 0.030000000000000006 3.4
f 193 196 195 194
f 193 194 198 197
f 194 195 199 198
f 195 196 200 199
f 196 193 197 200
f 197 198 199 200
o vano_referencial_25
usemtl c25
v 22.6 -0.04 1
v 24.0 -0.04 1
v 24.0 0.030000000000000006 1
v 22.6 0.030000000000000006 1
v 22.6 -0.04 3.4
v 24.0 -0.04 3.4
v 24.0 0.030000000000000006 3.4
v 22.6 0.030000000000000006 3.4
f 201 204 203 202
f 201 202 206 205
f 202 203 207 206
f 203 204 208 207
f 204 201 205 208
f 205 206 207 208
o vano_referencial_26
usemtl c26
v 25.3 -0.04 1
v 26.7 -0.04 1
v 26.7 0.030000000000000006 1
v 25.3 0.030000000000000006 1
v 25.3 -0.04 3.4
v 26.7 -0.04 3.4
v 26.7 0.030000000000000006 3.4
v 25.3 0.030000000000000006 3.4
f 209 212 211 210
f 209 210 214 213
f 210 211 215 214
f 211 212 216 215
f 212 209 213 216
f 213 214 215 216
o vano_referencial_27
usemtl c27
v 28.0 -0.04 1
v 29.4 -0.04 1
v 29.4 0.030000000000000006 1
v 28.0 0.030000000000000006 1
v 28.0 -0.04 3.4
v 29.4 -0.04 3.4
v 29.4 0.030000000000000006 3.4
v 28.0 0.030000000000000006 3.4
f 217 220 219 218
f 217 218 222 221
f 218 219 223 222
f 219 220 224 223
f 220 217 221 224
f 221 222 223 224
o vano_referencial_28
usemtl c28
v 30.700000000000003 -0.04 1
v 32.1 -0.04 1
v 32.1 0.030000000000000006 1
v 30.700000000000003 0.030000000000000006 1
v 30.700000000000003 -0.04 3.4
v 32.1 -0.04 3.4
v 32.1 0.030000000000000006 3.4
v 30.700000000000003 0.030000000000000006 3.4
f 225 228 227 226
f 225 226 230 229
f 226 227 231 230
f 227 228 232 231
f 228 225 229 232
f 229 230 231 232